<?xml version="1.0" encoding="utf-8"?>
<!-- Generator: Adobe Illustrator 24.0.1, SVG Export Plug-In . SVG Version: 6.00 Build 0)  -->
<svg version="1.1" id="Layer_1" xmlns="http://www.w3.org/2000/svg" xmlns:xlink="http://www.w3.org/1999/xlink" x="0px" y="0px"
	 viewBox="0 0 418.7 130.2" style="enable-background:new 0 0 418.7 130.2;" xml:space="preserve">
<style type="text/css">
	.st0{fill:#E2E7D4;}
	.st1{fill:#FFCC1A;}
</style>
<polygon class="st0" points="410.7,97.6 402.6,97.6 402.6,97.6 402.6,97.6 394.6,97.6 386.5,97.6 386.5,102.3 386.5,106.9 
	386.5,111.6 386.5,116.2 386.5,120.9 386.5,125.5 386.5,130.2 394.6,130.2 402.6,130.2 410.7,130.2 418.7,130.2 418.7,125.5 
	418.7,120.9 418.7,116.2 418.7,111.6 418.7,106.9 418.7,102.3 418.7,97.6 "/>
<polygon class="st1" points="153,0 144.9,0 144.9,0 144.9,0 136.9,0 128.8,0 120.8,0 112.7,0 112.7,0 112.7,0 104.7,0 96.6,0 
	88.6,0 80.5,0 80.5,0 80.5,0 72.5,0 64.4,0 56.4,0 48.3,0 48.3,0 48.3,0 40.3,0 32.2,0 24.2,0 16.1,0 16.1,0 16.1,0 8.1,0 0,0 
	0,4.6 0,9.3 0,13.9 0,18.6 0,23.2 0,27.9 0,32.5 0,37.2 0,41.8 0,46.5 0,51.1 0,55.8 0,60.4 0,65.1 0,69.7 0,74.4 0,79 0,83.7 
	0,88.3 0,93 0,97.6 0,102.3 0,106.9 0,111.6 0,116.2 0,120.9 0,125.5 0,130.2 8.1,130.2 16.1,130.2 24.2,130.2 32.2,130.2 
	32.2,125.5 32.2,120.9 32.2,116.2 32.2,111.6 32.2,106.9 32.2,102.3 32.2,97.6 32.2,93 32.2,88.3 32.2,83.7 32.2,79 32.2,74.4 
	32.2,69.7 32.2,65.1 32.2,60.4 32.2,55.8 32.2,51.1 32.2,46.5 32.2,41.8 32.2,37.2 32.2,32.5 40.3,32.5 48.3,32.5 56.4,32.5 
	64.4,32.5 64.4,37.2 64.4,41.8 64.4,46.5 64.4,51.1 64.4,55.8 64.4,60.4 64.4,65.1 64.4,69.7 64.4,74.4 64.4,79 64.4,83.7 
	64.4,88.3 64.4,93 64.4,97.6 64.4,102.3 64.4,106.9 64.4,111.6 64.4,116.2 64.4,120.9 64.4,125.5 64.4,130.2 72.5,130.2 80.5,130.2 
	88.6,130.2 96.6,130.2 96.6,125.5 96.6,120.9 96.6,116.2 96.6,111.6 96.6,106.9 96.6,102.3 96.6,97.6 96.6,93 96.6,88.3 96.6,83.7 
	96.6,79 96.6,74.4 96.6,69.7 96.6,65.1 96.6,60.4 96.6,55.8 96.6,51.1 96.6,46.5 96.6,41.8 96.6,37.2 96.6,32.5 104.7,32.5 
	112.7,32.5 120.8,32.5 128.8,32.5 128.8,37.2 128.8,41.8 128.8,46.5 128.8,51.1 128.8,55.8 128.8,60.4 128.8,65.1 128.8,69.7 
	128.8,74.4 128.8,79 128.8,83.7 128.8,88.3 128.8,93 128.8,97.6 128.8,102.3 128.8,106.9 128.8,111.6 128.8,116.2 128.8,120.9 
	128.8,125.5 128.8,130.2 136.9,130.2 144.9,130.2 153,130.2 161.1,130.2 161.1,125.5 161.1,120.9 161.1,116.2 161.1,111.6 
	161.1,106.9 161.1,102.3 161.1,97.6 161.1,93 161.1,88.3 161.1,83.7 161.1,79 161.1,74.4 161.1,69.7 161.1,65.1 161.1,60.4 
	161.1,55.8 161.1,51.1 161.1,46.5 161.1,41.8 161.1,37.2 161.1,32.5 161.1,27.9 161.1,23.2 161.1,18.6 161.1,13.9 161.1,9.3 
	161.1,4.6 161.1,0 "/>
<polygon class="st1" points="346.3,0 338.2,0 338.2,0 338.2,0 330.2,0 322.1,0 314.1,0 306,0 306,0 306,0 297.9,0 289.9,0 281.8,0 
	273.8,0 273.8,0 273.8,0 265.7,0 257.7,0 257.7,4.6 257.7,9.3 257.7,13.9 257.7,18.6 257.7,23.2 257.7,27.9 257.7,32.5 257.7,37.2 
	257.7,41.8 257.7,46.5 257.7,51.1 257.7,55.8 257.7,60.4 257.7,65.1 257.7,69.7 257.7,74.4 257.7,79 257.7,83.7 257.7,88.3 
	257.7,93 257.7,97.6 249.6,97.6 241.6,97.6 241.6,97.6 241.6,97.6 233.5,97.6 225.5,97.6 225.5,93 225.5,88.3 225.5,83.7 225.5,79 
	225.5,74.4 225.5,69.7 225.5,65.1 225.5,60.4 225.5,55.8 225.5,51.1 225.5,46.5 225.5,41.8 225.5,37.2 225.5,32.5 225.5,27.9 
	225.5,23.2 225.5,18.6 225.5,13.9 225.5,9.3 225.5,4.6 225.5,0 217.4,0 209.4,0 209.4,0 209.4,0 201.3,0 193.3,0 193.3,4.6 
	193.3,9.3 193.3,13.9 193.3,18.6 193.3,23.2 193.3,27.9 193.3,32.5 193.3,37.2 193.3,41.8 193.3,46.5 193.3,51.1 193.3,55.8 
	193.3,60.4 193.3,65.1 193.3,69.7 193.3,74.4 193.3,79 193.3,83.7 193.3,88.3 193.3,93 193.3,97.6 193.3,102.3 193.3,106.9 
	193.3,111.6 193.3,116.2 193.3,120.9 193.3,125.5 193.3,130.2 201.3,130.2 209.4,130.2 217.4,130.2 225.5,130.2 233.5,130.2 
	241.6,130.2 249.6,130.2 257.7,130.2 265.7,130.2 273.8,130.2 281.8,130.2 289.9,130.2 289.9,125.5 289.9,120.9 289.9,116.2 
	289.9,111.6 289.9,106.9 289.9,102.3 289.9,97.6 289.9,93 289.9,88.3 289.9,83.7 289.9,79 289.9,74.4 289.9,69.7 289.9,65.1 
	289.9,60.4 289.9,55.8 289.9,51.1 289.9,46.5 289.9,41.8 289.9,37.2 289.9,32.5 297.9,32.5 306,32.5 314.1,32.5 322.1,32.5 
	322.1,37.2 322.1,41.8 322.1,46.5 322.1,51.1 322.1,55.8 322.1,60.4 322.1,65.1 322.1,69.7 322.1,74.4 322.1,79 322.1,83.7 
	322.1,88.3 322.1,93 322.1,97.6 322.1,102.3 322.1,106.9 322.1,111.6 322.1,116.2 322.1,120.9 322.1,125.5 322.1,130.2 330.2,130.2 
	338.2,130.2 346.3,130.2 354.3,130.2 354.3,125.5 354.3,120.9 354.3,116.2 354.3,111.6 354.3,106.9 354.3,102.3 354.3,97.6 
	354.3,93 354.3,88.3 354.3,83.7 354.3,79 354.3,74.4 354.3,69.7 354.3,65.1 354.3,60.4 354.3,55.8 354.3,51.1 354.3,46.5 
	354.3,41.8 354.3,37.2 354.3,32.5 354.3,27.9 354.3,23.2 354.3,18.6 354.3,13.9 354.3,9.3 354.3,4.6 354.3,0 "/>
</svg>
