<?xml version="1.0" encoding="utf-8"?>
<!-- Generator: Adobe Illustrator 24.0.1, SVG Export Plug-In . SVG Version: 6.00 Build 0)  -->
<svg version="1.1" id="Layer_1" xmlns="http://www.w3.org/2000/svg" xmlns:xlink="http://www.w3.org/1999/xlink" x="0px" y="0px"
	 viewBox="0 0 884.4 84.1" style="enable-background:new 0 0 884.4 84.1;" xml:space="preserve">
<style type="text/css">
	.st0{fill:#E1E9D6;}
	.st1{fill:#FFCC1A;}
</style>
<g>
	<g>
		<path class="st0" d="M68.9,82.6V54.8c0-10.5-2.7-16.1-10.9-16.1c-8.4,0-12.7,5.6-12.7,16.9v27H34.4V54.8
			c0-10.6-2.7-16.1-10.9-16.1c-8.4,0-12.7,5.7-12.7,16.9v27H0v-53h10.7v5.7c4-4.5,8.1-6.7,14.5-6.7c7.3,0,13.7,2.9,17,9.8
			c5.1-7.8,11.5-9.8,17.6-9.8c11.8,0,19.8,7.4,19.8,24v30H68.9z"/>
		<path class="st0" d="M101.1,82.6v-53H112v53H101.1z M112,17.6h-10.9V6.7H112V17.6z"/>
		<path class="st0" d="M171.4,82.6V54.8c0-10.6-4.1-16.1-12.9-16.1c-9.2,0-13.5,5.9-13.5,16.9v27h-10.7v-53h10.7v5.7
			c3.6-4,7.9-6.7,15.4-6.7c12.6,0,21.9,7.4,21.9,24v30H171.4z"/>
		<path class="st0" d="M245.6,82.6v-6.3c-4.5,5.2-10.6,7.7-17.7,7.7c-15.7,0-28-12.2-28-27.7c0-15.7,12.5-27.8,28-27.8
			c7.1,0,13.2,2.6,17.7,7.8V0h10.7v82.6H245.6z M227.8,38.7c-9.9,0-17.4,7.8-17.4,17.6c0,9.9,7.5,17.6,17.4,17.6
			c10.2,0,17.5-8,17.5-17.6S237.9,38.7,227.8,38.7z"/>
		<path class="st0" d="M280,68.9c5.4,4.4,11.1,5.5,14.8,5.5c5.7,0,8.8-2.5,8.8-6c0-10.5-27.6-4-27.6-23.1c0-9.7,7.1-16.6,18.2-16.6
			c4.5,0,11.9,1.1,18,6l-5.7,7.9c-4.7-3.5-9.4-4.1-12.2-4.1c-5.4,0-7.7,2.7-7.7,5.6c0,10,27.5,4.6,27.5,23.7
			c0,10.2-7.7,16.4-19.6,16.4c-7.9,0-14.8-2.8-20.3-6.9L280,68.9z"/>
		<path class="st0" d="M370,82.6V54.8c0-10.6-4.1-16.1-12.9-16.1c-9.2,0-13.5,5.9-13.5,16.9v27h-10.7V0h10.7v35.3
			c3.6-4,7.9-6.7,15.4-6.7c12.6,0,21.9,7.4,21.9,24v30H370z"/>
		<path class="st0" d="M444.1,82.6v-6.3c-4.5,5.2-10.6,7.7-17.7,7.7c-15.7,0-28-12.2-28-27.7c0-15.7,12.5-27.8,28-27.8
			c7.1,0,13.2,2.6,17.7,7.8v-6.8h10.7v53H444.1z M426.4,38.7c-9.9,0-17.4,7.8-17.4,17.6c0,9.9,7.5,17.6,17.4,17.6
			c10.2,0,17.5-8,17.5-17.6S436.4,38.7,426.4,38.7z"/>
		<path class="st0" d="M477.2,82.6v-53h10.7v6.4c5.1-6.1,10.4-7.4,20.7-7.4v10.3c-17.5,0-20.7,7.1-20.7,16.3v27.5H477.2z"/>
		<path class="st0" d="M530,59.9c1.5,8.1,8.1,14.4,17.2,14.4c5.8,0,11.5-2.6,14.8-7.3l7.6,5.8c-4.9,6.9-13.3,11.2-22.4,11.2
			c-15.4,0-27.8-12.1-27.8-27.7c0-14.8,11.3-27.8,27.1-27.8c15.7,0,27.1,12.8,27.1,27.7c0,1.5-0.1,2.6-0.2,3.7H530z M562.8,51.5
			c-1.2-7.4-7.7-13.1-16.1-13.1c-8.3,0-14.4,5.6-16.3,13.1H562.8z"/>
		<path class="st0" d="M652.5,83.3c-1.8,0.4-3.7,0.8-5.9,0.8c-8.7,0-14.1-5.2-14.1-15V0h10.7v65.8c0,5.7,1.3,8.3,6.6,8.3
			c0.7,0,1.7,0,2.7-0.1V83.3z"/>
		<path class="st0" d="M708.7,82.6v-6.3c-4.5,5.2-10.6,7.7-17.7,7.7c-15.7,0-28-12.2-28-27.7c0-15.7,12.5-27.8,28-27.8
			c7.1,0,13.2,2.6,17.7,7.8v-6.8h10.7v53H708.7z M690.9,38.7c-9.9,0-17.4,7.8-17.4,17.6c0,9.9,7.5,17.6,17.4,17.6
			c10.2,0,17.5-8,17.5-17.6S701,38.7,690.9,38.7z"/>
		<path class="st0" d="M741.7,82.6V0h10.7v36.4c4.5-5.2,10.6-7.8,17.7-7.8c15.5,0,28,12.1,28,27.8c0,15.5-12.3,27.7-28,27.7
			c-7.1,0-13.3-2.5-17.7-7.7v6.3H741.7z M770.1,74c10,0,17.5-7.7,17.5-17.6c0-9.8-7.5-17.6-17.4-17.6s-17.4,7.8-17.4,17.6
			C752.8,66,759.8,74,770.1,74z"/>
		<path class="st0" d="M817.5,68.9c5.4,4.4,11.1,5.5,14.8,5.5c5.7,0,8.8-2.5,8.8-6c0-10.5-27.6-4-27.6-23.1
			c0-9.7,7.1-16.6,18.2-16.6c4.5,0,11.9,1.1,18,6l-5.7,7.9c-4.7-3.5-9.4-4.1-12.2-4.1c-5.4,0-7.7,2.7-7.7,5.6
			c0,10,27.5,4.6,27.5,23.7c0,10.2-7.7,16.4-19.6,16.4c-7.9,0-14.8-2.8-20.3-6.9L817.5,68.9z"/>
		<rect x="870.6" y="68.8" class="st1" width="13.8" height="13.8"/>
	</g>
</g>
</svg>
